<svg width="1775" height="355" viewBox="0 0 1775 355" fill="none" xmlns="http://www.w3.org/2000/svg">
  <defs>
    <linearGradient id="te-gradient" x1="0%" y1="0%" x2="100%" y2="0%">
      <stop offset="0%" stop-color="#6C5CE7"/>
      <stop offset="100%" stop-color="#a855f7"/>
    </linearGradient>
  </defs>
  <path d="M96.1538 286.923C71.282 286.923 53.2051 279.744 41.9231 265.385C30.8974 250.769 25.3846 231.795 25.3846 208.461V141.538H-2.75438e-05V92.3076L29.2307 89.9999L36.9231 39.9999H91.5384V89.9999H135.385V141.538H91.5384V207.308C91.5384 217.82 93.8461 225.128 98.4615 229.231C103.077 233.333 108.462 235.385 114.615 235.385C117.692 235.385 120.641 235.128 123.462 234.615C126.538 233.846 129.231 233.077 131.538 232.308L141.538 280C136.667 281.538 130.513 283.077 123.077 284.615C115.641 286.154 106.667 286.923 96.1538 286.923ZM170.919 282.308V89.9999H237.073V282.308H170.919ZM203.996 66.1537C193.74 66.1537 185.278 63.0768 178.612 56.923C171.945 50.5127 168.612 42.564 168.612 33.0768C168.612 23.3332 171.945 15.3845 178.612 9.23066C185.278 3.07681 193.74 -0.000109697 203.996 -0.000109697C214.509 -0.000109697 222.971 3.07681 229.381 9.23066C236.048 15.3845 239.381 23.3332 239.381 33.0768C239.381 42.564 236.048 50.5127 229.381 56.923C222.971 63.0768 214.509 66.1537 203.996 66.1537ZM368.645 286.923C350.44 286.923 334.029 282.949 319.414 275C304.799 267.051 293.132 255.641 284.414 240.769C275.953 225.641 271.722 207.436 271.722 186.154C271.722 164.872 276.465 146.795 285.953 131.923C295.696 116.795 308.388 105.256 324.029 97.3076C339.67 89.3589 356.594 85.3845 374.799 85.3845C386.337 85.3845 396.722 87.1794 405.953 90.7691C415.44 94.3589 423.773 99.2307 430.953 105.385L400.183 147.692C396.081 144.102 392.363 141.667 389.029 140.385C385.696 139.102 382.235 138.461 378.645 138.461C370.44 138.461 363.388 140.385 357.491 144.231C351.594 148.077 347.106 153.59 344.029 160.769C340.953 167.949 339.414 176.41 339.414 186.154C339.414 195.897 341.081 204.359 344.414 211.538C347.747 218.718 352.106 224.231 357.491 228.077C363.132 231.923 369.414 233.846 376.337 233.846C381.722 233.846 386.978 232.692 392.106 230.385C397.491 227.82 402.491 224.872 407.106 221.538L432.491 264.615C423.004 273.077 412.491 278.974 400.953 282.308C389.414 285.385 378.645 286.923 368.645 286.923ZM463.137 282.308V14.6153H527.752V156.923H529.291L582.368 89.9999H653.906L585.445 170L657.752 282.308H586.214L547.752 213.846L527.752 236.154V282.308H463.137ZM758.573 286.923C739.855 286.923 722.932 282.949 707.804 275C692.932 267.051 681.137 255.641 672.419 240.769C663.701 225.641 659.342 207.436 659.342 186.154C659.342 165.385 663.701 147.564 672.419 132.692C681.393 117.564 692.932 105.897 707.034 97.6922C721.137 89.4871 736.009 85.3845 751.65 85.3845C770.624 85.3845 786.265 89.6153 798.573 98.0768C811.137 106.282 820.368 117.436 826.265 131.538C832.419 145.641 835.496 161.282 835.496 178.461C835.496 184.102 835.111 189.615 834.342 195C833.829 200.128 833.316 203.846 832.804 206.154H711.65L710.88 163.077H779.342C779.342 155.641 777.419 149.231 773.573 143.846C769.983 138.205 763.188 135.385 753.188 135.385C747.547 135.385 742.163 136.923 737.034 140C731.906 143.077 727.675 148.333 724.342 155.769C721.009 163.205 719.342 173.333 719.342 186.154C719.342 199.744 721.778 210.256 726.65 217.692C731.521 224.872 737.675 229.872 745.111 232.692C752.547 235.513 760.111 236.923 767.804 236.923C774.47 236.923 780.88 236.026 787.034 234.231C793.445 232.179 800.111 229.231 807.034 225.385L828.573 264.615C818.316 271.795 806.778 277.308 793.957 281.154C781.137 285 769.342 286.923 758.573 286.923ZM947.266 286.923C922.394 286.923 904.317 279.744 893.035 265.385C882.009 250.769 876.496 231.795 876.496 208.461V141.538H851.112V92.3076L880.343 89.9999L888.035 39.9999H942.65V89.9999H986.496V141.538H942.65V207.308C942.65 217.82 944.958 225.128 949.573 229.231C954.189 233.333 959.573 235.385 965.727 235.385C968.804 235.385 971.753 235.128 974.573 234.615C977.65 233.846 980.343 233.077 982.65 232.308L992.65 280C987.779 281.538 981.625 283.077 974.189 284.615C966.753 286.154 957.779 286.923 947.266 286.923ZM1103.75 286.923C1085.03 286.923 1068.11 282.949 1052.98 275C1038.11 267.051 1026.31 255.641 1017.6 240.769C1008.88 225.641 1004.52 207.436 1004.52 186.154C1004.52 165.385 1008.88 147.564 1017.6 132.692C1026.57 117.564 1038.11 105.897 1052.21 97.6922C1066.31 89.4871 1081.19 85.3845 1096.83 85.3845C1115.8 85.3845 1131.44 89.6153 1143.75 98.0768C1156.31 106.282 1165.54 117.436 1171.44 131.538C1177.6 145.641 1180.67 161.282 1180.67 178.461C1180.67 184.102 1180.29 189.615 1179.52 195C1179.01 200.128 1178.49 203.846 1177.98 206.154H1056.83L1056.06 163.077H1124.52C1124.52 155.641 1122.6 149.231 1118.75 143.846C1115.16 138.205 1108.37 135.385 1098.37 135.385C1092.72 135.385 1087.34 136.923 1082.21 140C1077.08 143.077 1072.85 148.333 1069.52 155.769C1066.19 163.205 1064.52 173.333 1064.52 186.154C1064.52 199.744 1066.96 210.256 1071.83 217.692C1076.7 224.872 1082.85 229.872 1090.29 232.692C1097.72 235.513 1105.29 236.923 1112.98 236.923C1119.65 236.923 1126.06 236.026 1132.21 234.231C1138.62 232.179 1145.29 229.231 1152.21 225.385L1173.75 264.615C1163.49 271.795 1151.96 277.308 1139.13 281.154C1126.31 285 1114.52 286.923 1103.75 286.923ZM1263.21 286.923C1251.16 286.923 1240.78 284.231 1232.06 278.846C1223.6 273.205 1217.06 265.897 1212.44 256.923C1207.83 247.949 1205.52 238.205 1205.52 227.692C1205.52 207.692 1213.73 192.051 1230.14 180.769C1246.55 169.231 1273.21 161.538 1310.14 157.692C1309.62 153.077 1308.34 149.359 1306.29 146.538C1304.24 143.461 1301.29 141.282 1297.44 140C1293.6 138.461 1288.85 137.692 1283.21 137.692C1276.29 137.692 1268.98 139.102 1261.29 141.923C1253.6 144.487 1244.75 148.461 1234.75 153.846L1211.67 110.769C1220.65 105.385 1229.75 100.769 1238.98 96.923C1248.21 93.0768 1257.57 90.2563 1267.06 88.4614C1276.55 86.4102 1286.29 85.3845 1296.29 85.3845C1312.96 85.3845 1327.19 88.5896 1338.98 94.9999C1351.03 101.154 1360.26 110.897 1366.67 124.231C1373.08 137.308 1376.29 154.359 1376.29 175.385V282.308H1322.44L1317.83 263.846H1316.29C1308.6 270.769 1300.39 276.41 1291.67 280.769C1283.21 284.872 1273.73 286.923 1263.21 286.923ZM1286.29 236.154C1291.67 236.154 1296.16 235 1299.75 232.692C1303.34 230.128 1306.8 226.923 1310.14 223.077V196.923C1299.62 198.461 1291.29 200.513 1285.14 203.077C1279.24 205.641 1275.01 208.59 1272.44 211.923C1269.88 215.256 1268.6 218.718 1268.6 222.308C1268.6 226.667 1270.14 230.128 1273.21 232.692C1276.29 235 1280.65 236.154 1286.29 236.154ZM1478.65 286.923C1466.34 286.923 1453.26 284.487 1439.42 279.615C1425.83 274.487 1414.03 267.949 1404.03 260L1433.26 219.231C1442.24 225.641 1450.57 230.513 1458.26 233.846C1466.21 236.923 1473.52 238.461 1480.19 238.461C1487.11 238.461 1491.98 237.564 1494.8 235.769C1497.88 233.718 1499.42 230.769 1499.42 226.923C1499.42 223.59 1497.62 220.769 1494.03 218.461C1490.7 215.897 1486.21 213.59 1480.57 211.538C1474.93 209.487 1468.9 207.179 1462.49 204.615C1455.06 201.538 1447.62 197.692 1440.19 193.077C1432.75 188.205 1426.47 182.051 1421.34 174.615C1416.47 167.179 1414.03 158.205 1414.03 147.692C1414.03 128.718 1421.08 113.59 1435.19 102.308C1449.29 91.0255 1467.62 85.3845 1490.19 85.3845C1506.08 85.3845 1519.67 88.0768 1530.96 93.4614C1542.49 98.5896 1552.49 104.359 1560.96 110.769L1531.72 150C1524.8 144.872 1518.01 140.897 1511.34 138.077C1504.67 135.256 1498.39 133.846 1492.49 133.846C1486.85 133.846 1482.62 134.743 1479.8 136.538C1476.98 138.077 1475.57 140.769 1475.57 144.615C1475.57 147.949 1477.24 150.769 1480.57 153.077C1483.9 155.128 1488.26 157.179 1493.65 159.231C1499.29 161.026 1505.31 163.077 1511.72 165.385C1519.42 168.205 1526.98 171.923 1534.42 176.538C1542.11 181.154 1548.39 187.179 1553.26 194.615C1558.39 202.051 1560.96 211.538 1560.96 223.077C1560.96 235.128 1557.75 246.026 1551.34 255.769C1545.19 265.256 1535.96 272.82 1523.65 278.461C1511.6 284.102 1496.6 286.923 1478.65 286.923ZM1621.78 354.615C1615.37 354.615 1609.99 354.231 1605.63 353.461C1601.27 352.692 1596.91 351.795 1592.55 350.769L1604.09 300.769C1605.88 301.026 1607.94 301.41 1610.24 301.923C1612.55 302.692 1614.6 303.077 1616.4 303.077C1625.37 303.077 1632.17 301.282 1636.78 297.692C1641.4 294.102 1644.6 289.487 1646.4 283.846L1648.71 275.385L1575.63 89.9999H1641.78L1664.86 163.846C1667.68 172.564 1670.12 181.41 1672.17 190.385C1674.22 199.359 1676.4 208.718 1678.71 218.461H1680.24C1682.29 209.231 1684.22 200.128 1686.01 191.154C1688.06 182.179 1690.24 173.077 1692.55 163.846L1711.78 89.9999H1774.86L1710.24 279.231C1703.58 296.41 1696.4 310.513 1688.71 321.538C1681.27 332.82 1672.17 341.154 1661.4 346.538C1650.88 351.923 1637.68 354.615 1621.78 354.615Z" fill="url(#te-gradient)"/>
</svg>
